# xmcd
#
# Track frame offsets: 
#        150
#        15898
#        34399
#        49716
#        73533
#        94148
#        107223
#        125218
#        172730
#        193231
#        208195
#        223806
#        241633
#        258263
#        276182
#
# Disc length: 3896 seconds
#
# Revision: 0
# Processed by: cddbd v1.5.2PL0 Copyright (c) Steve Scherf et al.
# Submitted via: ExactAudioCopyFreeDBPlugin 1.0
#
DISCID=da0f360f
DTITLE=Diverse - Blue Rose Nuggets 059
DYEAR=2013
DGENRE=
TTITLE0=Uncle Lucius - Pocket Full Of Misery
TTITLE1=I See Hawks In L.A. - New Kind Of Lonely
TTITLE2=Markus Rill and The Troublemakers - Edge Of Nothing
TTITLE3=Carolyn Wonderland - On The Road Again
TTITLE4=Sunkings - Turnaround
TTITLE5=Owen Temple - Mountain Home
TTITLE6=Amelia Curran - Years
TTITLE7=Tom Gilliam - The Girl I Knew Somewhere - Nova's Journey
TTITLE8=The Pinetops - Underneath Your Wheels
TTITLE9=Wooldridge Brothers - Unbelieveable Truth
TTITLE10=American Aquarium - Cape Fear River
TTITLE11=Leeroy Stagger - Capitalism Must Die!
TTITLE12=Jenn Grant - The Fighter
TTITLE13=Whitehorse - Achilles' Desire
TTITLE14=The Resentments - State Of Distraction
EXTD=
EXTT0=
EXTT1=
EXTT2=
EXTT3=
EXTT4=
EXTT5=
EXTT6=
EXTT7=
EXTT8=
EXTT9=
EXTT10=
EXTT11=
EXTT12=
EXTT13=
EXTT14=
PLAYORDER=
